<?xml version="1.0" standalone="no"?>
<!DOCTYPE svg PUBLIC "-//W3C//DTD SVG 20010904//EN"
 "http://www.w3.org/TR/2001/REC-SVG-20010904/DTD/svg10.dtd">
<svg version="1.0" xmlns="http://www.w3.org/2000/svg"
 width="404.000000pt" height="54.000000pt" viewBox="0 0 404.000000 54.000000"
 preserveAspectRatio="xMidYMid meet">

<g transform="translate(0.000000,54.000000) scale(0.100000,-0.100000)"
fill="#000000" stroke="none">
<path d="M1809 505 c-55 -30 -77 -106 -43 -153 8 -12 42 -36 74 -52 62 -31 84
-57 74 -85 -15 -37 -83 -38 -139 -1 -22 14 -24 14 -39 -9 -9 -13 -16 -29 -16
-34 0 -21 82 -53 136 -53 88 -1 144 45 144 119 0 43 -32 77 -110 116 -66 33
-82 55 -60 82 15 18 73 20 102 4 18 -9 24 -8 35 7 21 29 15 44 -22 60 -43 18
-102 17 -136 -1z"/>
<path d="M2555 507 c-73 -34 -115 -104 -115 -189 1 -101 58 -176 150 -197 113
-25 209 42 218 154 l4 55 -91 0 c-90 0 -91 0 -91 -25 0 -23 3 -25 50 -25 46 0
50 -2 50 -24 0 -49 -85 -89 -137 -64 -86 41 -99 188 -21 242 29 20 104 20 143
0 28 -14 30 -14 47 8 24 31 23 33 -19 54 -49 23 -148 29 -188 11z"/>
<path d="M3615 501 c-144 -66 -156 -271 -22 -355 131 -81 297 13 297 168 -1
151 -143 248 -275 187z m139 -72 c99 -78 59 -239 -59 -239 -68 0 -115 53 -115
130 0 101 102 165 174 109z"/>
<path d="M860 315 l0 -195 63 0 c82 0 130 14 172 51 71 63 85 180 30 258 -39
58 -94 81 -188 81 l-77 0 0 -195z m149 117 c40 -21 71 -73 71 -117 0 -62 -63
-125 -125 -125 l-25 0 0 130 c0 128 0 130 23 130 12 0 38 -8 56 -18z"/>
<path d="M1340 315 l0 -195 105 0 105 0 0 35 0 35 -71 0 -70 0 3 48 3 47 68 3
c67 3 67 3 67 32 l0 30 -70 0 -70 0 0 50 0 50 70 0 70 0 0 30 0 30 -105 0
-105 0 0 -195z"/>
<path d="M2180 315 l0 -195 35 0 35 0 0 195 0 195 -35 0 -35 0 0 -195z"/>
<path d="M3000 315 l0 -195 35 0 34 0 3 133 3 132 84 -132 83 -133 39 0 39 0
0 195 0 195 -40 0 -39 0 -3 -126 -3 -126 -80 126 c-79 125 -80 126 -117 126
l-38 0 0 -195z"/>
</g>
</svg>
